<svg width="16" height="17" viewBox="0 0 16 17" fill="none" xmlns="http://www.w3.org/2000/svg">
<path fill-rule="evenodd" clip-rule="evenodd" d="M8 10.8333C7.82934 10.8333 7.65867 10.768 7.52867 10.638L4.862 7.97133C4.60134 7.71066 4.60134 7.28933 4.862 7.02866C5.12267 6.76799 5.544 6.76799 5.80467 7.02866L8.008 9.23199L10.2033 7.11199C10.4693 6.85666 10.89 6.86399 11.146 7.12866C11.402 7.39333 11.3947 7.81599 11.13 8.07133L8.46334 10.646C8.33334 10.7713 8.16667 10.8333 8 10.8333Z" fill="#BD744C"/>
<mask id="mask0" mask-type="alpha" maskUnits="userSpaceOnUse" x="4" y="6" width="8" height="5">
<path fill-rule="evenodd" clip-rule="evenodd" d="M8 10.8333C7.82934 10.8333 7.65867 10.768 7.52867 10.638L4.862 7.97133C4.60134 7.71066 4.60134 7.28933 4.862 7.02866C5.12267 6.76799 5.544 6.76799 5.80467 7.02866L8.008 9.23199L10.2033 7.11199C10.4693 6.85666 10.89 6.86399 11.146 7.12866C11.402 7.39333 11.3947 7.81599 11.13 8.07133L8.46334 10.646C8.33334 10.7713 8.16667 10.8333 8 10.8333Z" fill="white"/>
</mask>
<g mask="url(#mask0)">
<rect y="0.5" width="16" height="16" fill="#BD744C"/>
</g>
</svg>
