<svg xmlns="http://www.w3.org/2000/svg" width="48" height="48" viewBox="0 0 48 48" fill="none">
    <path fill-rule="evenodd" clip-rule="evenodd" d="M36 38C33.794 38 32 36.206 32 34C32 31.794 33.794 30 36 30C38.206 30 40 31.794 40 34C40 36.206 38.206 38 36 38ZM12 30C14.206 30 16 31.794 16 34C16 36.206 14.206 38 12 38C9.794 38 8 36.206 8 34C8 31.794 9.794 30 12 30ZM24 4C12.972 4 4 13.3 4 24.732V34C4 38.412 7.588 42 12 42C16.412 42 20 38.412 20 34C20 29.588 16.412 26 12 26C10.536 26 9.182 26.424 8 27.114V24.732C8 15.506 15.178 8 24 8C32.822 8 40 15.506 40 24.732V27.114C38.818 26.424 37.464 26 36 26C31.588 26 28 29.588 28 34C28 38.412 31.588 42 36 42C40.412 42 44 38.412 44 34V24.732C44 13.3 35.028 4 24 4Z" fill="#BD744C"/>
    <mask id="mask0" mask-type="alpha" maskUnits="userSpaceOnUse" x="4" y="4" width="40" height="38">
        <path fill-rule="evenodd" clip-rule="evenodd" d="M36 38C33.794 38 32 36.206 32 34C32 31.794 33.794 30 36 30C38.206 30 40 31.794 40 34C40 36.206 38.206 38 36 38ZM12 30C14.206 30 16 31.794 16 34C16 36.206 14.206 38 12 38C9.794 38 8 36.206 8 34C8 31.794 9.794 30 12 30ZM24 4C12.972 4 4 13.3 4 24.732V34C4 38.412 7.588 42 12 42C16.412 42 20 38.412 20 34C20 29.588 16.412 26 12 26C10.536 26 9.182 26.424 8 27.114V24.732C8 15.506 15.178 8 24 8C32.822 8 40 15.506 40 24.732V27.114C38.818 26.424 37.464 26 36 26C31.588 26 28 29.588 28 34C28 38.412 31.588 42 36 42C40.412 42 44 38.412 44 34V24.732C44 13.3 35.028 4 24 4Z" fill="white"/>
    </mask>
    <g mask="url(#mask0)">
        <rect width="48" height="48" fill="#2c7be5"/>
    </g>
</svg>