<svg width="24" height="24" viewBox="0 0 24 24" fill="none" xmlns="http://www.w3.org/2000/svg">
<path fill-rule="evenodd" clip-rule="evenodd" d="M7.2198 6C6.3558 6 5.5458 6.334 4.9398 6.941C3.6818 8.201 3.6818 10.252 4.9408 11.514L11.9998 18.585L19.0598 11.514C20.3188 10.252 20.3188 8.201 19.0598 6.941C17.8478 5.726 15.7118 5.728 14.4998 6.941L12.7078 8.736C12.3318 9.113 11.6678 9.113 11.2918 8.736L9.4998 6.94C8.8938 6.334 8.0848 6 7.2198 6ZM11.9998 21C11.7348 21 11.4798 20.895 11.2928 20.706L3.5248 12.926C1.4888 10.886 1.4888 7.567 3.5248 5.527C4.5088 4.543 5.8208 4 7.2198 4C8.6188 4 9.9318 4.543 10.9148 5.527L11.9998 6.614L13.0848 5.528C14.0688 4.543 15.3808 4 16.7808 4C18.1788 4 19.4918 4.543 20.4748 5.527C22.5118 7.567 22.5118 10.886 20.4758 12.926L12.7078 20.707C12.5198 20.895 12.2658 21 11.9998 21Z" fill="#262626"/>
<mask id="mask0" mask-type="alpha" maskUnits="userSpaceOnUse" x="1" y="4" width="22" height="17">
<path fill-rule="evenodd" clip-rule="evenodd" d="M7.2198 6C6.3558 6 5.5458 6.334 4.9398 6.941C3.6818 8.201 3.6818 10.252 4.9408 11.514L11.9998 18.585L19.0598 11.514C20.3188 10.252 20.3188 8.201 19.0598 6.941C17.8478 5.726 15.7118 5.728 14.4998 6.941L12.7078 8.736C12.3318 9.113 11.6678 9.113 11.2918 8.736L9.4998 6.94C8.8938 6.334 8.0848 6 7.2198 6ZM11.9998 21C11.7348 21 11.4798 20.895 11.2928 20.706L3.5248 12.926C1.4888 10.886 1.4888 7.567 3.5248 5.527C4.5088 4.543 5.8208 4 7.2198 4C8.6188 4 9.9318 4.543 10.9148 5.527L11.9998 6.614L13.0848 5.528C14.0688 4.543 15.3808 4 16.7808 4C18.1788 4 19.4918 4.543 20.4748 5.527C22.5118 7.567 22.5118 10.886 20.4758 12.926L12.7078 20.707C12.5198 20.895 12.2658 21 11.9998 21Z" fill="white"/>
</mask>
<g mask="url(#mask0)">
<rect width="24" height="24" fill="#262626"/>
</g>
</svg>
