<svg xmlns="http://www.w3.org/2000/svg" width="48" height="48" viewBox="0 0 48 48" fill="none">
    <path fill-rule="evenodd" clip-rule="evenodd" d="M43.3657 20.6521C43.3512 20.6839 43.3367 20.7157 43.3232 20.748C43.3095 20.7815 43.2987 20.8165 43.2879 20.8513C43.2704 20.908 43.2529 20.9645 43.2232 21.014C43.164 21.112 43.0867 21.1944 43.0092 21.2769C42.987 21.3005 42.9649 21.324 42.9432 21.348C42.919 21.373 42.8976 21.4005 42.8762 21.4279C42.8463 21.4663 42.8165 21.5045 42.7792 21.536C42.6672 21.6275 42.5377 21.6911 42.4087 21.7544C42.3996 21.759 42.3904 21.7635 42.3812 21.768C42.3539 21.7812 42.328 21.7979 42.3021 21.8145C42.2652 21.8382 42.2283 21.8619 42.1872 21.876C41.9712 21.956 41.7412 22 41.5032 22C41.3952 22 41.2832 21.992 41.1732 21.972L32.6732 20.562C31.5832 20.382 30.8472 19.352 31.0272 18.262C31.2072 17.174 32.2352 16.428 33.3272 16.618L36.6152 17.162C34.1252 12.79 29.3712 10 24.1392 10C18.2212 10 13.0072 13.436 10.8532 18.75C10.5392 19.53 9.78917 20 8.99917 20C8.74917 20 8.49517 19.954 8.24917 19.854C7.22517 19.44 6.73117 18.274 7.14717 17.25C9.91517 10.416 16.5852 6 24.1392 6C30.9632 6 37.1652 9.74 40.2952 15.576L41.0332 11.63C41.2372 10.546 42.2852 9.828 43.3672 10.036C44.4532 10.238 45.1692 11.284 44.9652 12.37L43.4672 20.37C43.448 20.472 43.4069 20.562 43.3657 20.6521ZM37.147 29.2504C37.561 28.2244 38.729 27.7324 39.751 28.1464C40.775 28.5604 41.269 29.7264 40.853 30.7504C38.085 37.5844 31.415 42.0004 23.861 42.0004C17.037 42.0004 10.835 38.2604 7.70497 32.4244L6.96497 36.3684C6.78697 37.3304 5.94697 38.0004 5.00097 38.0004C4.87897 38.0004 4.75497 37.9884 4.63097 37.9644C3.54497 37.7624 2.83097 36.7164 3.03497 35.6304L4.53297 27.6304C4.54818 27.5518 4.58184 27.4821 4.61566 27.4121C4.63523 27.3715 4.65485 27.3309 4.67097 27.2884C4.68678 27.2486 4.7006 27.2073 4.71443 27.166C4.74435 27.0767 4.77437 26.987 4.82497 26.9104C4.85449 26.8649 4.89308 26.8285 4.93191 26.7918C4.95623 26.7689 4.98064 26.7458 5.00297 26.7204C5.02059 26.7 5.03801 26.6795 5.0554 26.659C5.15059 26.5468 5.24491 26.4356 5.36497 26.3544C5.37676 26.3458 5.39085 26.3407 5.40478 26.3356C5.41683 26.3312 5.42876 26.3269 5.43897 26.3204C5.63297 26.1944 5.84097 26.0964 6.07097 26.0464C6.08498 26.0432 6.09957 26.044 6.11411 26.0448C6.12656 26.0455 6.13898 26.0462 6.15097 26.0444C6.37097 26.0084 6.59297 25.9864 6.82697 26.0264L15.327 27.4384C16.417 27.6164 17.153 28.6484 16.973 29.7384C16.811 30.7164 15.963 31.4104 15.001 31.4104C14.893 31.4104 14.783 31.4024 14.673 31.3824L11.385 30.8384C13.875 35.2104 18.629 38.0004 23.861 38.0004C29.779 38.0004 34.993 34.5644 37.147 29.2504Z" fill="#BD744C"/>
    <mask id="mask0" mask-type="alpha" maskUnits="userSpaceOnUse" x="3" y="6" width="42" height="37">
        <path fill-rule="evenodd" clip-rule="evenodd" d="M43.3657 20.6521C43.3512 20.6839 43.3367 20.7157 43.3232 20.748C43.3095 20.7815 43.2987 20.8165 43.2879 20.8513C43.2704 20.908 43.2529 20.9645 43.2232 21.014C43.164 21.112 43.0867 21.1944 43.0092 21.2769C42.987 21.3005 42.9649 21.324 42.9432 21.348C42.919 21.373 42.8976 21.4005 42.8762 21.4279C42.8463 21.4663 42.8165 21.5045 42.7792 21.536C42.6672 21.6275 42.5377 21.6911 42.4087 21.7544C42.3996 21.759 42.3904 21.7635 42.3812 21.768C42.3539 21.7812 42.328 21.7979 42.3021 21.8145C42.2652 21.8382 42.2283 21.8619 42.1872 21.876C41.9712 21.956 41.7412 22 41.5032 22C41.3952 22 41.2832 21.992 41.1732 21.972L32.6732 20.562C31.5832 20.382 30.8472 19.352 31.0272 18.262C31.2072 17.174 32.2352 16.428 33.3272 16.618L36.6152 17.162C34.1252 12.79 29.3712 10 24.1392 10C18.2212 10 13.0072 13.436 10.8532 18.75C10.5392 19.53 9.78917 20 8.99917 20C8.74917 20 8.49517 19.954 8.24917 19.854C7.22517 19.44 6.73117 18.274 7.14717 17.25C9.91517 10.416 16.5852 6 24.1392 6C30.9632 6 37.1652 9.74 40.2952 15.576L41.0332 11.63C41.2372 10.546 42.2852 9.828 43.3672 10.036C44.4532 10.238 45.1692 11.284 44.9652 12.37L43.4672 20.37C43.448 20.472 43.4069 20.562 43.3657 20.6521ZM37.147 29.2504C37.561 28.2244 38.729 27.7324 39.751 28.1464C40.775 28.5604 41.269 29.7264 40.853 30.7504C38.085 37.5844 31.415 42.0004 23.861 42.0004C17.037 42.0004 10.835 38.2604 7.70497 32.4244L6.96497 36.3684C6.78697 37.3304 5.94697 38.0004 5.00097 38.0004C4.87897 38.0004 4.75497 37.9884 4.63097 37.9644C3.54497 37.7624 2.83097 36.7164 3.03497 35.6304L4.53297 27.6304C4.54818 27.5518 4.58184 27.4821 4.61566 27.4121C4.63523 27.3715 4.65485 27.3309 4.67097 27.2884C4.68678 27.2486 4.7006 27.2073 4.71443 27.166C4.74435 27.0767 4.77437 26.987 4.82497 26.9104C4.85449 26.8649 4.89308 26.8285 4.93191 26.7918C4.95623 26.7689 4.98064 26.7458 5.00297 26.7204C5.02059 26.7 5.03801 26.6795 5.0554 26.659C5.15059 26.5468 5.24491 26.4356 5.36497 26.3544C5.37676 26.3458 5.39085 26.3407 5.40478 26.3356C5.41683 26.3312 5.42876 26.3269 5.43897 26.3204C5.63297 26.1944 5.84097 26.0964 6.07097 26.0464C6.08498 26.0432 6.09957 26.044 6.11411 26.0448C6.12656 26.0455 6.13898 26.0462 6.15097 26.0444C6.37097 26.0084 6.59297 25.9864 6.82697 26.0264L15.327 27.4384C16.417 27.6164 17.153 28.6484 16.973 29.7384C16.811 30.7164 15.963 31.4104 15.001 31.4104C14.893 31.4104 14.783 31.4024 14.673 31.3824L11.385 30.8384C13.875 35.2104 18.629 38.0004 23.861 38.0004C29.779 38.0004 34.993 34.5644 37.147 29.2504Z" fill="white"/>
    </mask>
    <g mask="url(#mask0)">
        <rect width="48" height="48" fill="#2c7be5"/>
    </g>
</svg>