<svg width="32" height="32" viewBox="0 0 32 32" fill="none" xmlns="http://www.w3.org/2000/svg">
<path fill-rule="evenodd" clip-rule="evenodd" d="M6.66667 14.6667C6.66667 10.2547 10.2547 6.66667 14.6667 6.66667C19.0787 6.66667 22.6667 10.2547 22.6667 14.6667C22.6667 19.0787 19.0787 22.6667 14.6667 22.6667C10.2547 22.6667 6.66667 19.0787 6.66667 14.6667ZM27.6093 25.724L23.0827 21.196C24.4867 19.3907 25.3333 17.128 25.3333 14.6667C25.3333 8.78533 20.548 4 14.6667 4C8.78533 4 4 8.78533 4 14.6667C4 20.548 8.78533 25.3333 14.6667 25.3333C17.128 25.3333 19.3907 24.4867 21.196 23.0827L25.724 27.6093C25.984 27.8693 26.3253 28 26.6667 28C27.008 28 27.3493 27.8693 27.6093 27.6093C28.1307 27.088 28.1307 26.2453 27.6093 25.724Z" fill="#9D9D9D"/>
<mask id="mask0" mask-type="alpha" maskUnits="userSpaceOnUse" x="4" y="4" width="25" height="24">
<path fill-rule="evenodd" clip-rule="evenodd" d="M6.66667 14.6667C6.66667 10.2547 10.2547 6.66667 14.6667 6.66667C19.0787 6.66667 22.6667 10.2547 22.6667 14.6667C22.6667 19.0787 19.0787 22.6667 14.6667 22.6667C10.2547 22.6667 6.66667 19.0787 6.66667 14.6667ZM27.6093 25.724L23.0827 21.196C24.4867 19.3907 25.3333 17.128 25.3333 14.6667C25.3333 8.78533 20.548 4 14.6667 4C8.78533 4 4 8.78533 4 14.6667C4 20.548 8.78533 25.3333 14.6667 25.3333C17.128 25.3333 19.3907 24.4867 21.196 23.0827L25.724 27.6093C25.984 27.8693 26.3253 28 26.6667 28C27.008 28 27.3493 27.8693 27.6093 27.6093C28.1307 27.088 28.1307 26.2453 27.6093 25.724Z" fill="white"/>
</mask>
<g mask="url(#mask0)">
<rect width="32" height="32" fill="#9D9D9D"/>
</g>
</svg>
