<svg width="24" height="24" viewBox="0 0 24 24" fill="none" xmlns="http://www.w3.org/2000/svg">
<path fill-rule="evenodd" clip-rule="evenodd" d="M16.382 14.0001H8.76398L7.12698 8.00008H19.382L16.382 14.0001ZM21.083 6.948C20.716 6.354 20.08 6 19.382 6H6.582L5.965 3.737C5.846 3.302 5.451 3 5 3H3C2.447 3 2 3.448 2 4C2 4.552 2.447 5 3 5H4.236L7.035 15.263C7.154 15.698 7.549 16 8 16H17C17.379 16 17.725 15.786 17.895 15.447L21.171 8.894C21.484 8.269 21.45 7.542 21.083 6.948ZM7.50018 18C6.67218 18 6.00018 18.671 6.00018 19.5C6.00018 20.329 6.67218 21 7.50018 21C8.32818 21 9.00018 20.329 9.00018 19.5C9.00018 18.671 8.32818 18 7.50018 18ZM16.0002 19.5C16.0002 18.671 16.6722 18 17.5002 18C18.3282 18 19.0002 18.671 19.0002 19.5C19.0002 20.329 18.3282 21 17.5002 21C16.6722 21 16.0002 20.329 16.0002 19.5Z" fill="white"/>
<mask id="mask0" mask-type="alpha" maskUnits="userSpaceOnUse" x="2" y="3" width="20" height="18">
<path fill-rule="evenodd" clip-rule="evenodd" d="M16.382 14.0001H8.76398L7.12698 8.00008H19.382L16.382 14.0001ZM21.083 6.948C20.716 6.354 20.08 6 19.382 6H6.582L5.965 3.737C5.846 3.302 5.451 3 5 3H3C2.447 3 2 3.448 2 4C2 4.552 2.447 5 3 5H4.236L7.035 15.263C7.154 15.698 7.549 16 8 16H17C17.379 16 17.725 15.786 17.895 15.447L21.171 8.894C21.484 8.269 21.45 7.542 21.083 6.948ZM7.50018 18C6.67218 18 6.00018 18.671 6.00018 19.5C6.00018 20.329 6.67218 21 7.50018 21C8.32818 21 9.00018 20.329 9.00018 19.5C9.00018 18.671 8.32818 18 7.50018 18ZM16.0002 19.5C16.0002 18.671 16.6722 18 17.5002 18C18.3282 18 19.0002 18.671 19.0002 19.5C19.0002 20.329 18.3282 21 17.5002 21C16.6722 21 16.0002 20.329 16.0002 19.5Z" fill="white"/>
</mask>
<g mask="url(#mask0)">
<rect width="24" height="24" fill="white"/>
</g>
</svg>
