<svg xmlns="http://www.w3.org/2000/svg" width="48" height="48" viewBox="0 0 48 48" fill="none">
    <path fill-rule="evenodd" clip-rule="evenodd" d="M38 36C38 37.104 37.104 38 36 38C34.896 38 34 37.104 34 36C34 34.896 34.896 34 36 34C37.104 34 38 34.896 38 36ZM24 30H8L8.032 10H30L29.968 30H24ZM14 36C14 37.104 13.104 38 12 38C10.896 38 10 37.104 10 36C10 34.896 10.896 34 12 34C13.104 34 14 34.896 14 36ZM40 24.96V30H34V20.162L40 24.96ZM43.25 22.438L34 15.038V10C34 7.794 32.374 6 30.374 6H7.624C5.626 6 4 7.794 4 10V30C4 31.746 5.026 33.218 6.442 33.764C6.162 34.456 6 35.208 6 36C6 39.308 8.692 42 12 42C15.308 42 18 39.308 18 36C18 35.294 17.856 34.628 17.63 34H24H30.37C30.144 34.628 30 35.294 30 36C30 39.308 32.692 42 36 42C39.308 42 42 39.308 42 36C42 35.294 41.856 34.628 41.63 34H42C43.106 34 44 33.106 44 32V24C44 23.392 43.724 22.818 43.25 22.438Z" fill="#BD744C"/>
    <mask id="mask0" mask-type="alpha" maskUnits="userSpaceOnUse" x="4" y="6" width="40" height="36">
        <path fill-rule="evenodd" clip-rule="evenodd" d="M38 36C38 37.104 37.104 38 36 38C34.896 38 34 37.104 34 36C34 34.896 34.896 34 36 34C37.104 34 38 34.896 38 36ZM24 30H8L8.032 10H30L29.968 30H24ZM14 36C14 37.104 13.104 38 12 38C10.896 38 10 37.104 10 36C10 34.896 10.896 34 12 34C13.104 34 14 34.896 14 36ZM40 24.96V30H34V20.162L40 24.96ZM43.25 22.438L34 15.038V10C34 7.794 32.374 6 30.374 6H7.624C5.626 6 4 7.794 4 10V30C4 31.746 5.026 33.218 6.442 33.764C6.162 34.456 6 35.208 6 36C6 39.308 8.692 42 12 42C15.308 42 18 39.308 18 36C18 35.294 17.856 34.628 17.63 34H24H30.37C30.144 34.628 30 35.294 30 36C30 39.308 32.692 42 36 42C39.308 42 42 39.308 42 36C42 35.294 41.856 34.628 41.63 34H42C43.106 34 44 33.106 44 32V24C44 23.392 43.724 22.818 43.25 22.438Z" fill="white"/>
    </mask>
    <g mask="url(#mask0)">
        <rect width="48" height="48" fill="#2c7be5"/>
    </g>
</svg>