<?xml version="1.0" encoding="utf-8"?>
<!-- Generator: Adobe Illustrator 16.0.0, SVG Export Plug-In . SVG Version: 6.00 Build 0)  -->
<!DOCTYPE svg PUBLIC "-//W3C//DTD SVG 1.1//EN" "http://www.w3.org/Graphics/SVG/1.1/DTD/svg11.dtd">
<svg version="1.1" id="Layer_1" xmlns="http://www.w3.org/2000/svg" xmlns:xlink="http://www.w3.org/1999/xlink" x="0px" y="0px"
	 width="408.625px" height="97.688px" viewBox="0 0 408.625 97.688" enable-background="new 0 0 408.625 97.688"
	 xml:space="preserve">
<g>
	<path fill="#f44336" fill-rule="evenodd" clip-rule="evenodd" d="M1,86.271c0.401,0.027,0.802,0.08,1.203,0.08
		c25.973,0.004,51.946,0.003,77.919,0.003c0.396,0,0.793,0,1.394,0c-0.267-0.474-0.434-0.785-0.613-1.089
		c-6.978-11.834-13.954-23.67-20.946-35.497c-0.321-0.543-0.382-0.951-0.034-1.538c1.788-3.009,3.52-6.051,5.379-9.269
		c10.861,19.368,21.647,38.602,32.5,57.954c-0.386,0.03-0.664,0.072-0.942,0.072c-30.662,0.004-61.323-0.002-91.985,0.016
		C2.928,97.004,1.733,96.068,1,94.368C1,91.669,1,88.97,1,86.271z"/>
	<path fill="#f44336" fill-rule="evenodd" clip-rule="evenodd" d="M104.652,96.798c-0.205-0.298-0.435-0.58-0.611-0.894
		C91.363,73.371,78.689,50.835,66.014,28.299c-0.178-0.316-0.369-0.626-0.626-1.063c-0.245,0.392-0.441,0.684-0.617,0.987
		C57.584,40.715,50.393,53.202,43.235,65.71c-0.415,0.725-0.866,0.943-1.66,0.933c-3.068-0.046-6.138-0.024-9.208-0.027
		c-0.326,0-0.651,0-1.192,0C42.424,46.601,53.581,26.751,64.808,6.774c0.241,0.395,0.418,0.658,0.569,0.937
		c12.729,23.501,25.458,47.001,38.173,70.51c0.443,0.819,0.738,1.721,1.102,2.583C104.652,86.135,104.652,91.466,104.652,96.798z"/>
	<path fill="#f44336" fill-rule="evenodd" clip-rule="evenodd" d="M21.911,72.183c0.673,0,1.107,0,1.542,0c13.864,0,27.728,0.01,41.592-0.022
		c0.903-0.003,1.377,0.284,1.817,1.049c1.39,2.421,2.865,4.794,4.377,7.3c-22.306,0-44.498,0-66.794,0
		c0.112-0.263,0.186-0.506,0.311-0.722c14.937-25.671,29.88-51.339,44.811-77.013c0.845-1.453,2.033-2.159,3.72-2.138
		c2.697,0.033,5.395,0.009,8.303,0.009C48.356,24.503,35.193,48.236,21.911,72.183z"/>
</g>
<g>
	<path fill="#f44336" d="M193.724,13.412l-27.919,74.346h-14.121l-28.027-74.346h13.05l22.037,61.83l22.143-61.83H193.724z"/>
	<path fill="#f44336" d="M257.479,62.833h-45.035c0.355,4.707,2.103,8.488,5.241,11.339c3.138,2.853,6.988,4.279,11.554,4.279
		c6.561,0,11.195-2.745,13.906-8.237h13.157c-1.783,5.42-5.011,9.86-9.681,13.318c-4.672,3.46-10.467,5.188-17.383,5.188
		c-5.635,0-10.681-1.266-15.137-3.798c-4.458-2.53-7.953-6.097-10.483-10.697c-2.532-4.6-3.798-9.93-3.798-15.992
		c0-6.061,1.23-11.393,3.69-15.993c2.461-4.6,5.919-8.146,10.377-10.644c4.456-2.495,9.573-3.744,15.351-3.744
		c5.563,0,10.519,1.213,14.869,3.637c4.349,2.425,7.737,5.83,10.162,10.216c2.424,4.386,3.638,9.432,3.638,15.137
		C257.907,59.054,257.763,61.052,257.479,62.833z M245.177,52.992c-0.071-4.493-1.676-8.093-4.813-10.805
		c-3.139-2.709-7.025-4.065-11.66-4.065c-4.209,0-7.809,1.337-10.805,4.012c-2.995,2.674-4.778,6.294-5.349,10.858H245.177z"/>
	<path fill="#f44336" d="M284.113,38.765v32.627c0,2.211,0.517,3.797,1.552,4.76c1.033,0.962,2.798,1.444,5.295,1.444h7.488v10.163h-9.628
		c-5.492,0-9.699-1.284-12.623-3.851c-2.925-2.567-4.386-6.739-4.386-12.516V38.765h-6.953v-9.949h6.953V14.161h12.302v14.655
		h14.335v9.949H284.113z"/>
	<path fill="#f44336" d="M328.988,30.367c2.958-1.675,6.472-2.514,10.536-2.514v12.623h-3.102c-4.779,0-8.397,1.213-10.858,3.637
		c-2.46,2.425-3.69,6.632-3.69,12.623v31.022H309.68V28.816h12.194v8.558C323.656,34.378,326.027,32.043,328.988,30.367z"/>
	<path fill="#f44336" d="M350.382,42.294c2.461-4.563,5.812-8.111,10.056-10.644c4.242-2.531,8.933-3.797,14.067-3.797
		c4.635,0,8.681,0.909,12.141,2.728c3.459,1.818,6.222,4.083,8.291,6.793v-8.558h12.302v58.942h-12.302v-8.772
		c-2.069,2.781-4.886,5.1-8.451,6.954c-3.566,1.854-7.632,2.781-12.195,2.781c-5.064,0-9.699-1.3-13.906-3.905
		c-4.209-2.603-7.541-6.239-10.002-10.911c-2.46-4.67-3.69-9.965-3.69-15.886C346.691,52.101,347.922,46.859,350.382,42.294z
		 M392.423,47.644c-1.677-2.996-3.87-5.277-6.579-6.847c-2.711-1.568-5.635-2.353-8.771-2.353c-3.14,0-6.063,0.767-8.772,2.3
		c-2.711,1.534-4.904,3.781-6.579,6.739c-1.676,2.96-2.514,6.472-2.514,10.537c0,4.065,0.838,7.632,2.514,10.698
		c1.675,3.067,3.887,5.402,6.633,7.006c2.744,1.605,5.651,2.407,8.719,2.407c3.137,0,6.061-0.784,8.771-2.354
		c2.709-1.568,4.902-3.868,6.579-6.9c1.675-3.03,2.514-6.579,2.514-10.644C394.937,54.168,394.098,50.639,392.423,47.644z"/>
</g>
<g>
</g>
<g>
</g>
<g>
</g>
<g>
</g>
<g>
</g>
<g>
</g>
</svg>
